HIERARCHY
ROOT newVegas:Hips
{
	OFFSET 0.000000 96.479958 0.000000
	CHANNELS 6 Xposition Yposition Zposition Xrotation Yrotation Zrotation
	JOINT newVegas:Pelvis
	{
		OFFSET 0.000000 0.000000 0.000000
		CHANNELS 3 Xrotation Yrotation Zrotation
		JOINT newVegas:LeftUpLeg
		{
			OFFSET 18.735201 -5.666702 -4.541200
			CHANNELS 3 Xrotation Yrotation Zrotation
			JOINT newVegas:LeftLeg
			{
				OFFSET -0.021200 -31.938179 0.493100
				CHANNELS 3 Xrotation Yrotation Zrotation
				JOINT newVegas:LeftFoot
				{
					OFFSET 0.021200 -31.938179 -4.336299
					CHANNELS 3 Xrotation Yrotation Zrotation
					JOINT newVegas:LeftToeBase
					{
						OFFSET 0.943001 -26.722000 15.023500
						CHANNELS 3 Xrotation Yrotation Zrotation
						End Site
						{
							OFFSET 0.000000 30.670183 0.000000
						}
					}
				}
				JOINT newVegas:Left_PantLeg
				{
					OFFSET 0.663870 -9.044666 -1.108900
					CHANNELS 3 Xrotation Yrotation Zrotation
					End Site
					{
						OFFSET 1.415995 20.635357 0.000000
					}
				}
			}
		}
		JOINT newVegas:RightUpLeg
		{
			OFFSET -18.735201 -5.666702 -4.541200
			CHANNELS 3 Xrotation Yrotation Zrotation
			JOINT newVegas:RightLeg
			{
				OFFSET 0.018946 -31.938133 0.493100
				CHANNELS 3 Xrotation Yrotation Zrotation
				JOINT newVegas:RightFoot
				{
					OFFSET -0.018946 -31.938126 -4.336299
					CHANNELS 3 Xrotation Yrotation Zrotation
					JOINT newVegas:RightToeBase
					{
						OFFSET -0.943001 -26.722004 15.023500
						CHANNELS 3 Xrotation Yrotation Zrotation
						End Site
						{
							OFFSET 0.000000 30.670187 0.000000
						}
					}
				}
				JOINT newVegas:Right_PantLeg
				{
					OFFSET -0.661674 -9.044716 -1.108900
					CHANNELS 3 Xrotation Yrotation Zrotation
					End Site
					{
						OFFSET -1.415958 20.635269 0.000000
					}
				}
			}
		}
	}
	JOINT newVegas:Spine
	{
		OFFSET 0.000000 10.199997 -0.299500
		CHANNELS 3 Xrotation Yrotation Zrotation
		JOINT newVegas:Spine1
		{
			OFFSET 0.000000 11.900002 -1.516600
			CHANNELS 3 Xrotation Yrotation Zrotation
			JOINT newVegas:Spine2
			{
				OFFSET 0.000000 13.600006 -2.842500
				CHANNELS 3 Xrotation Yrotation Zrotation
				JOINT newVegas:Neck
				{
					OFFSET 0.000000 9.624100 -2.890100
					CHANNELS 3 Xrotation Yrotation Zrotation
					JOINT newVegas:Head
					{
						OFFSET 0.000000 14.068802 -1.351900
						CHANNELS 3 Xrotation Yrotation Zrotation
						JOINT newVegas:Hair_Back
						{
							OFFSET 0.000000 3.231903 -17.524799
							CHANNELS 3 Xrotation Yrotation Zrotation
							End Site
							{
								OFFSET 0.000000 19.849884 0.000000
							}
						}
						JOINT newVegas:Hair_Front
						{
							OFFSET 0.000000 31.260406 4.573800
							CHANNELS 3 Xrotation Yrotation Zrotation
							JOINT newVegas:Hair_Front1
							{
								OFFSET 0.000000 2.284103 11.993300
								CHANNELS 3 Xrotation Yrotation Zrotation
								JOINT newVegas:Hair_Front2
								{
									OFFSET 0.000000 2.284103 11.993300
									CHANNELS 3 Xrotation Yrotation Zrotation
									End Site
									{
										OFFSET 0.000000 12.208862 0.000000
									}
								}
							}
						}
						JOINT newVegas:Jowel
						{
							OFFSET 0.000000 -7.458206 6.864100
							CHANNELS 3 Xrotation Yrotation Zrotation
							End Site
							{
								OFFSET 0.000000 19.849884 0.000000
							}
						}
					}
				}
				JOINT newVegas:LeftShoulder
				{
					OFFSET 15.263000 10.923401 -0.547700
					CHANNELS 3 Xrotation Yrotation Zrotation
					JOINT newVegas:LeftArm
					{
						OFFSET 25.438599 -2.830597 -13.032500
						CHANNELS 3 Xrotation Yrotation Zrotation
						JOINT newVegas:LeftForeArm
						{
							OFFSET 29.960503 0.000000 0.000000
							CHANNELS 3 Xrotation Yrotation Zrotation
							JOINT newVegas:LeftHand
							{
								OFFSET 27.849251 0.000000 0.000000
								CHANNELS 3 Xrotation Yrotation Zrotation
								JOINT newVegas:LeftHandThumb1
								{
									OFFSET 4.487587 -3.305161 6.305391
									CHANNELS 3 Xrotation Yrotation Zrotation
									JOINT newVegas:LeftHandThumb2
									{
										OFFSET 5.480453 -3.164139 3.164143
										CHANNELS 3 Xrotation Yrotation Zrotation
										JOINT newVegas:LeftHandThumb3
										{
											OFFSET 5.159721 -2.978973 2.978967
											CHANNELS 3 Xrotation Yrotation Zrotation
											End Site
											{
												OFFSET 2.494507 5.926697 1.738678
											}
										}
									}
								}
								JOINT newVegas:LeftHandIndex1
								{
									OFFSET 18.578728 -0.527832 5.208049
									CHANNELS 3 Xrotation Yrotation Zrotation
									JOINT newVegas:LeftHandIndex2
									{
										OFFSET 3.192009 0.000000 0.000000
										CHANNELS 3 Xrotation Yrotation Zrotation
										JOINT newVegas:LeftHandIndex3
										{
											OFFSET 3.835129 0.000000 0.000000
											CHANNELS 3 Xrotation Yrotation Zrotation
											End Site
											{
												OFFSET -0.034599 3.816971 0.371180
											}
										}
									}
								}
								JOINT newVegas:LeftHandMiddle1
								{
									OFFSET 18.476105 0.000000 0.000000
									CHANNELS 3 Xrotation Yrotation Zrotation
									JOINT newVegas:LeftHandMiddle2
									{
										OFFSET 3.324875 0.000000 0.000000
										CHANNELS 3 Xrotation Yrotation Zrotation
										JOINT newVegas:LeftHandMiddle3
										{
											OFFSET 4.596550 0.000000 0.000000
											CHANNELS 3 Xrotation Yrotation Zrotation
											End Site
											{
												OFFSET 0.057701 4.578827 0.399218
											}
										}
									}
								}
								JOINT newVegas:LeftHandRing1
								{
									OFFSET 17.732719 0.121887 -4.201567
									CHANNELS 3 Xrotation Yrotation Zrotation
									JOINT newVegas:LeftHandRing2
									{
										OFFSET 2.733170 0.000000 0.000000
										CHANNELS 3 Xrotation Yrotation Zrotation
										JOINT newVegas:LeftHandRing3
										{
											OFFSET 3.178268 0.000000 0.000000
											CHANNELS 3 Xrotation Yrotation Zrotation
											End Site
											{
												OFFSET 0.119102 3.170624 0.185394
											}
										}
									}
								}
								JOINT newVegas:LeftHandPinky1
								{
									OFFSET 15.989624 -0.606689 -7.535461
									CHANNELS 3 Xrotation Yrotation Zrotation
									JOINT newVegas:LeftHandPinky2
									{
										OFFSET 2.538986 0.000000 0.000000
										CHANNELS 3 Xrotation Yrotation Zrotation
										JOINT newVegas:LeftHandPinky3
										{
											OFFSET 2.593102 0.000000 0.000000
											CHANNELS 3 Xrotation Yrotation Zrotation
											End Site
											{
												OFFSET -0.150902 2.584198 0.152708
											}
										}
									}
								}
							}
							JOINT newVegas:Left_Sleeve
							{
								OFFSET 0.267448 -0.649796 0.577675
								CHANNELS 3 Xrotation Yrotation Zrotation
								End Site
								{
									OFFSET 0.000000 15.991241 0.000000
								}
							}
							JOINT newVegas:Left_CapeC
							{
								OFFSET 15.715958 -8.608795 -6.935905
								CHANNELS 3 Xrotation Yrotation Zrotation
								JOINT newVegas:Left_CapeC1
								{
									OFFSET 0.000000 -8.688499 0.000000
									CHANNELS 3 Xrotation Yrotation Zrotation
									End Site
									{
										OFFSET 0.000000 8.688499 0.000000
									}
								}
							}
						}
						JOINT newVegas:Left_CapeB
						{
							OFFSET 26.118385 -8.608795 -7.079235
							CHANNELS 3 Xrotation Yrotation Zrotation
							JOINT newVegas:Left_CapeB1
							{
								OFFSET 0.000000 -8.688499 0.000000
								CHANNELS 3 Xrotation Yrotation Zrotation
								End Site
								{
									OFFSET 0.000000 8.688499 0.000000
								}
							}
						}
						JOINT newVegas:Left_CapeA
						{
							OFFSET 5.115639 -8.608795 -10.395809
							CHANNELS 3 Xrotation Yrotation Zrotation
							JOINT newVegas:Left_CapeA1
							{
								OFFSET 0.000000 -8.688499 0.000000
								CHANNELS 3 Xrotation Yrotation Zrotation
								End Site
								{
									OFFSET 0.000000 8.688499 0.000000
								}
							}
						}
					}
				}
				JOINT newVegas:RightShoulder
				{
					OFFSET -15.263000 10.923401 -0.547700
					CHANNELS 3 Xrotation Yrotation Zrotation
					JOINT newVegas:RightArm
					{
						OFFSET -25.438599 -2.830597 -13.032500
						CHANNELS 3 Xrotation Yrotation Zrotation
						JOINT newVegas:RightForeArm
						{
							OFFSET -29.960503 0.000000 0.000000
							CHANNELS 3 Xrotation Yrotation Zrotation
							JOINT newVegas:RightHand
							{
								OFFSET -27.849251 0.000000 0.000000
								CHANNELS 3 Xrotation Yrotation Zrotation
								JOINT newVegas:RightHandThumb1
								{
									OFFSET -4.487587 -3.305161 6.305391
									CHANNELS 3 Xrotation Yrotation Zrotation
									JOINT newVegas:RightHandThumb2
									{
										OFFSET -5.480453 -3.164139 3.164143
										CHANNELS 3 Xrotation Yrotation Zrotation
										JOINT newVegas:RightHandThumb3
										{
											OFFSET -5.159721 -2.978973 2.978967
											CHANNELS 3 Xrotation Yrotation Zrotation
											End Site
											{
												OFFSET -2.494507 5.926697 1.738678
											}
										}
									}
								}
								JOINT newVegas:RightHandIndex1
								{
									OFFSET -18.578728 -0.527832 5.208049
									CHANNELS 3 Xrotation Yrotation Zrotation
									JOINT newVegas:RightHandIndex2
									{
										OFFSET -3.192009 0.000000 0.000000
										CHANNELS 3 Xrotation Yrotation Zrotation
										JOINT newVegas:RightHandIndex3
										{
											OFFSET -3.835129 0.000000 0.000000
											CHANNELS 3 Xrotation Yrotation Zrotation
											End Site
											{
												OFFSET 0.034599 3.816971 0.371180
											}
										}
									}
								}
								JOINT newVegas:RightHandMiddle1
								{
									OFFSET -18.476105 0.000000 0.000000
									CHANNELS 3 Xrotation Yrotation Zrotation
									JOINT newVegas:RightHandMiddle2
									{
										OFFSET -3.324875 0.000000 0.000000
										CHANNELS 3 Xrotation Yrotation Zrotation
										JOINT newVegas:RightHandMiddle3
										{
											OFFSET -4.596550 0.000000 0.000000
											CHANNELS 3 Xrotation Yrotation Zrotation
											End Site
											{
												OFFSET -0.057701 4.578827 0.399218
											}
										}
									}
								}
								JOINT newVegas:RightHandRing1
								{
									OFFSET -17.732719 0.121887 -4.201567
									CHANNELS 3 Xrotation Yrotation Zrotation
									JOINT newVegas:RightHandRing2
									{
										OFFSET -2.733170 0.000000 0.000000
										CHANNELS 3 Xrotation Yrotation Zrotation
										JOINT newVegas:RightHandRing3
										{
											OFFSET -3.178268 0.000000 0.000000
											CHANNELS 3 Xrotation Yrotation Zrotation
											End Site
											{
												OFFSET -0.119102 3.170624 0.185394
											}
										}
									}
								}
								JOINT newVegas:RightHandPinky1
								{
									OFFSET -15.989624 -0.606689 -7.535461
									CHANNELS 3 Xrotation Yrotation Zrotation
									JOINT newVegas:RightHandPinky2
									{
										OFFSET -2.538986 0.000000 0.000000
										CHANNELS 3 Xrotation Yrotation Zrotation
										JOINT newVegas:RightHandPinky3
										{
											OFFSET -2.593102 0.000000 0.000000
											CHANNELS 3 Xrotation Yrotation Zrotation
											End Site
											{
												OFFSET 0.150902 2.584198 0.152708
											}
										}
									}
								}
							}
							JOINT newVegas:Right_CapeC
							{
								OFFSET -15.715958 -8.608795 -6.935905
								CHANNELS 3 Xrotation Yrotation Zrotation
								JOINT newVegas:Right_CapeC1
								{
									OFFSET 0.000000 -8.688499 0.000000
									CHANNELS 3 Xrotation Yrotation Zrotation
									End Site
									{
										OFFSET 0.000000 8.688499 0.000000
									}
								}
							}
							JOINT newVegas:Right_Sleeve
							{
								OFFSET -0.267448 -0.649994 0.577675
								CHANNELS 3 Xrotation Yrotation Zrotation
								End Site
								{
									OFFSET 0.000000 15.991302 0.000000
								}
							}
						}
						JOINT newVegas:Right_CapeA
						{
							OFFSET -5.115540 -8.608795 -10.395824
							CHANNELS 3 Xrotation Yrotation Zrotation
							JOINT newVegas:Right_CapeA1
							{
								OFFSET 0.000000 -8.688499 0.000000
								CHANNELS 3 Xrotation Yrotation Zrotation
								End Site
								{
									OFFSET 0.000000 8.688499 0.000000
								}
							}
						}
						JOINT newVegas:Right_CapeB
						{
							OFFSET -26.118187 -8.608795 -7.079266
							CHANNELS 3 Xrotation Yrotation Zrotation
							JOINT newVegas:Right_CapeB1
							{
								OFFSET 0.000000 -8.688499 0.000000
								CHANNELS 3 Xrotation Yrotation Zrotation
								End Site
								{
									OFFSET 0.000000 8.688499 0.000000
								}
							}
						}
					}
				}
				JOINT newVegas:Left_Collar
				{
					OFFSET 18.625099 8.655502 8.828100
					CHANNELS 3 Xrotation Yrotation Zrotation
					JOINT newVegas:Left_Collar1
					{
						OFFSET 14.783401 10.540405 -1.259500
						CHANNELS 3 Xrotation Yrotation Zrotation
						End Site
						{
							OFFSET 0.000000 18.199875 0.000000
						}
					}
				}
				JOINT newVegas:Collar_Back
				{
					OFFSET 0.000000 15.630707 -20.132601
					CHANNELS 3 Xrotation Yrotation Zrotation
					End Site
					{
						OFFSET 0.000000 22.523010 0.000000
					}
				}
				JOINT newVegas:Left_Peck
				{
					OFFSET 17.239599 -5.132599 25.482599
					CHANNELS 3 Xrotation Yrotation Zrotation
					End Site
					{
						OFFSET 0.000000 22.523010 0.000000
					}
				}
				JOINT newVegas:Right_Peck
				{
					OFFSET -17.239599 -5.132202 25.482599
					CHANNELS 3 Xrotation Yrotation Zrotation
					End Site
					{
						OFFSET 0.000000 22.523010 0.000000
					}
				}
				JOINT newVegas:Right_Collar
				{
					OFFSET -18.625099 8.655792 8.828100
					CHANNELS 3 Xrotation Yrotation Zrotation
					JOINT newVegas:Right_Collar1
					{
						OFFSET -14.783401 10.539993 -1.259500
						CHANNELS 3 Xrotation Yrotation Zrotation
						End Site
						{
							OFFSET 0.000000 18.199631 0.000000
						}
					}
				}
			}
		}
		JOINT newVegas:Belly
		{
			OFFSET 0.000000 -6.540398 9.014299
			CHANNELS 3 Xrotation Yrotation Zrotation
			End Site
			{
				OFFSET 0.000000 11.566666 0.000000
			}
		}
	}
	JOINT newVegas:ElvisFacialAnim_Joint
	{
		OFFSET 1.000000 -95.330101 -8.825800
		CHANNELS 3 Xrotation Yrotation Zrotation
		End Site
		{
			OFFSET 0.000000 35.315800 0.000000
		}
	}
}
MOTION
Frames: 4
Frame Time: 0.033333
-3.018436 46.149597 3.439449 -40.578150 -32.508972 -20.411575 0.000002 0.000001 -0.000001 -88.296369 -14.420414 21.858467 123.374267 -12.013458 -0.900616 1.331611 -4.884274 -5.072679 0.000000 0.000000 0.000000 0.000000 -0.000002 -0.000000 5.380258 44.025863 -32.175901 143.219081 44.550066 7.476112 -75.091714 -16.879100 13.216099 0.000002 0.000001 0.000001 -0.000000 -0.000001 -0.000004 58.786762 2.409072 2.138062 10.734625 0.744711 -4.521336 17.520055 -0.085158 -4.562560 -1.362554 2.877709 -0.258143 -1.362561 2.877717 -0.258137 -0.000002 0.000000 0.000000 -1.362643 2.877749 -0.258130 -1.362460 2.877690 -0.258146 -0.000003 0.000001 0.000001 -0.000002 0.000000 -0.000000 -37.559050 -4.830597 1.310667 -73.285949 -19.463818 -69.165433 0.000028 -49.482572 0.000032 -122.217520 3.140013 22.355266 4.709229 9.560377 3.111991 19.473175 -1.474899 7.636918 0.000002 0.000003 -0.000004 -0.212820 3.933717 -36.747125 2.942139 5.078900 -60.144610 -0.000000 0.000000 -0.000001 0.405917 5.507035 -52.453158 3.387146 5.308611 -65.057470 0.000001 0.000000 0.000002 -0.074374 5.736766 -61.061420 4.055022 5.569493 -72.094935 -0.000002 0.000003 0.000003 -6.565548 4.545174 -72.425215 3.299620 5.267184 -64.107814 0.000003 0.000002 0.000002 -0.000000 0.000000 -0.000003 -0.000000 0.000000 -0.000003 -0.000000 0.000000 -0.000003 0.000001 0.000000 0.000001 0.000000 0.000000 0.000001 0.000001 0.000000 0.000001 -0.000001 -0.000001 0.000001 -42.139832 -9.769745 -7.575440 -51.815659 45.272126 94.913866 -0.000173 103.657444 0.000190 -37.420028 -24.461429 -24.583540 8.377118 -4.904128 11.022015 21.620195 -18.183910 -18.379219 0.000002 0.000000 0.000003 -0.920038 1.683591 12.434989 0.748103 -2.533477 32.898286 -0.000001 0.000001 0.000002 3.413064 -7.186238 51.650263 6.296789 -4.359575 110.634667 0.000001 -0.000001 0.000002 -3.349048 -2.600411 57.010592 5.440877 -4.590875 99.698168 0.000001 0.000001 -0.000004 -3.996432 -3.303941 64.593891 4.058821 -4.618638 82.610544 -0.000002 0.000002 -0.000000 -0.000001 0.000009 0.000001 -0.000000 0.000005 0.000003 -0.000001 0.000008 0.000000 0.000000 0.000002 0.000001 0.000000 0.000003 0.000001 0.000000 0.000002 0.000001 0.000000 0.000003 0.000001 -0.000000 0.000000 -0.000000 -0.000000 0.000000 -0.000000 -0.000000 0.000000 -0.000000 -0.000000 0.000000 -0.000000 -0.000000 0.000000 -0.000000 -0.000000 0.000000 -0.000000 -0.000000 0.000000 -0.000000 0.000003 0.000000 -0.000000 0.000002 0.000001 -0.000001 
-3.052994 46.138832 3.404034 -40.559917 -32.577970 -20.366687 -0.000003 -0.000003 -0.000002 -88.287401 -14.403757 22.019931 123.323341 -12.141087 -0.902248 1.349551 -4.881824 -5.048913 -0.000000 0.000001 -0.000000 0.000000 0.000001 0.000000 5.411239 44.139336 -32.489642 143.251210 44.548492 7.517487 -74.881631 -16.667736 13.410194 -0.000000 0.000000 -0.000000 0.000000 0.000001 -0.000000 58.823652 2.459284 2.094946 10.755472 0.749804 -4.521011 17.540682 -0.079163 -4.562025 -1.345728 2.874027 -0.248547 -1.345732 2.874031 -0.248549 -0.000000 0.000002 -0.000002 -1.345741 2.874025 -0.248542 -1.345742 2.874026 -0.248544 -0.000000 -0.000000 0.000001 -0.000000 0.000002 -0.000002 -37.552814 -4.813164 1.306895 -72.968605 -19.341953 -68.959789 0.000016 -49.897838 0.000013 -122.411757 2.953074 22.356032 4.600014 9.229575 3.722030 19.473185 -1.474898 7.636919 0.000000 0.000003 -0.000004 -0.456513 3.523494 -35.749791 2.925255 5.069234 -59.953761 -0.000004 0.000000 0.000000 0.181661 5.289116 -51.687764 3.390767 5.310284 -65.096395 -0.000006 -0.000001 0.000001 -0.833101 5.258742 -60.398693 4.044832 5.566185 -71.989654 0.000000 -0.000002 -0.000001 -6.800934 4.444664 -72.309252 3.307472 5.270978 -64.193301 0.000001 -0.000003 0.000001 -0.000001 -0.000001 -0.000000 -0.000001 -0.000001 -0.000000 -0.000001 -0.000001 0.000000 0.000001 0.000001 -0.000000 0.000000 0.000000 0.000001 0.000001 0.000001 -0.000000 -0.000001 -0.000000 0.000001 -42.166180 -9.757557 -7.674696 -51.883063 45.315385 95.006668 0.000070 103.658400 -0.000059 -37.288834 -24.528043 -24.455877 8.500115 -4.975175 11.285002 21.631966 -18.221985 -18.379312 -0.000002 -0.000001 0.000001 -0.894353 1.822696 11.835580 0.748200 -2.533612 32.900475 -0.000000 0.000001 -0.000001 3.329248 -7.151947 50.926379 6.297300 -4.359382 110.641230 0.000000 -0.000000 0.000000 -3.349421 -2.589785 56.935443 5.454821 -4.588490 99.872617 -0.000001 -0.000001 -0.000002 -3.915741 -3.307920 64.351194 4.041221 -4.616334 82.391821 -0.000002 -0.000000 -0.000000 0.000001 -0.000000 0.000001 -0.000000 -0.000000 -0.000000 0.000001 -0.000000 -0.000001 0.000000 0.000004 -0.000004 0.000000 0.000005 -0.000003 0.000000 0.000004 -0.000004 0.000000 0.000005 -0.000003 -0.000000 0.000000 -0.000000 -0.000000 0.000000 -0.000000 -0.000000 0.000000 -0.000000 -0.000000 0.000000 -0.000000 -0.000000 0.000000 -0.000000 -0.000000 0.000000 -0.000000 -0.000000 0.000000 -0.000000 0.000001 -0.000002 0.000001 -0.000003 -0.000003 -0.000002 
-3.097477 46.147842 3.297245 -40.467139 -32.719557 -20.180053 0.000001 0.000002 -0.000000 -88.267054 -14.170423 22.236707 123.124528 -12.116352 -0.889921 1.347434 -5.081125 -4.933876 -0.000000 0.000001 0.000000 0.000000 0.000001 -0.000000 4.793809 44.938239 -33.398928 143.357570 44.669519 7.648144 -73.145548 -16.373941 14.338116 -0.000001 0.000003 -0.000001 0.000001 0.000001 0.000000 58.938454 2.569099 2.005167 10.831247 0.772689 -4.496742 17.618343 -0.051491 -4.541760 -1.374573 2.869821 -0.286534 -1.374558 2.869811 -0.286533 0.000002 -0.000001 0.000002 -1.374517 2.869813 -0.286532 -1.374512 2.869796 -0.286535 0.000000 -0.000000 0.000001 0.000002 -0.000001 0.000002 -37.560996 -5.566763 1.139709 -71.993800 -18.752870 -67.777518 -0.000098 -51.292914 -0.000070 -122.508144 2.532909 22.941755 4.425349 8.708349 4.838552 19.473177 -1.474894 7.636918 0.000003 -0.000002 -0.000003 -0.763858 2.980821 -34.621341 2.832834 5.014833 -58.902056 0.000001 -0.000001 0.000000 -0.140063 4.953522 -50.500093 3.381342 5.305936 -64.994796 0.000005 0.000002 0.000001 -2.012075 4.435760 -59.102774 4.057526 5.570280 -72.120432 0.000000 -0.000001 0.000000 -7.168526 4.186018 -71.679639 3.325146 5.279443 -64.385530 0.000002 -0.000002 -0.000001 -0.000001 0.000003 -0.000003 -0.000001 0.000003 -0.000003 -0.000001 0.000003 -0.000003 0.000002 -0.000001 -0.000001 0.000001 -0.000002 -0.000001 0.000002 -0.000001 -0.000001 -0.000000 -0.000002 -0.000000 -42.209924 -9.822891 -7.907477 -52.179141 45.505988 95.132418 0.000530 103.639904 -0.000503 -37.474116 -24.515909 -24.476355 8.812194 -5.159974 11.846529 21.646078 -18.267696 -18.379488 0.000003 0.000003 -0.000000 -0.843541 2.019561 10.873204 0.748343 -2.533813 32.903354 -0.000000 0.000000 0.000001 3.207724 -7.124707 49.307064 6.301833 -4.357670 110.700865 -0.000000 -0.000000 -0.000001 -3.352218 -2.538828 56.580642 5.474534 -4.585016 100.119297 0.000000 0.000001 -0.000001 -3.749397 -3.312958 63.809915 4.020114 -4.613446 82.129152 -0.000001 -0.000003 -0.000002 -0.000000 0.000000 -0.000000 -0.000001 -0.000000 -0.000001 -0.000000 -0.000000 -0.000000 -0.000001 0.000001 -0.000001 -0.000001 0.000002 -0.000000 -0.000001 0.000001 -0.000001 -0.000001 0.000002 -0.000000 -0.000001 0.000001 -0.000001 -0.000001 0.000001 -0.000001 -0.000001 0.000001 -0.000001 -0.000001 0.000001 -0.000001 -0.000001 0.000001 -0.000001 -0.000001 0.000001 -0.000001 -0.000001 0.000001 -0.000001 0.000002 0.000001 -0.000001 0.000001 0.000002 -0.000000 
-3.094534 46.239342 3.081093 -40.198583 -33.141874 -19.620299 -0.000002 0.000003 0.000000 -88.055653 -13.348218 22.636777 122.503227 -12.144792 -0.839332 1.404563 -4.950084 -4.853441 0.000000 0.000001 0.000000 0.000000 0.000000 0.000000 3.464100 46.911676 -35.794730 143.386762 45.239266 7.995685 -69.127703 -16.071345 16.217770 -0.000001 0.000001 0.000000 -0.000000 0.000000 0.000000 59.121284 2.677330 1.716878 10.938493 0.868871 -4.537360 17.724901 0.026063 -4.608195 -1.418533 2.860485 -0.373831 -1.418503 2.860480 -0.373816 -0.000003 0.000000 0.000000 -1.418488 2.860464 -0.373813 -1.418552 2.860552 -0.373836 0.000001 -0.000000 0.000001 -0.000003 0.000000 -0.000001 -37.609760 -7.292926 0.752728 -70.485981 -17.935489 -65.526335 0.000044 -53.126509 0.000040 -122.985889 1.915440 23.479919 4.186623 8.187341 6.794735 19.459272 -1.550624 7.669124 0.000003 -0.000000 -0.000003 -1.178057 2.220616 -33.396121 2.667441 4.911649 -56.990555 0.000002 0.000001 0.000000 -0.344302 4.681771 -49.110587 3.308365 5.271423 -64.203259 -0.000004 -0.000001 0.000002 -3.767291 3.194009 -57.974741 4.086977 5.579674 -72.423870 -0.000001 0.000001 -0.000001 -7.546936 3.904660 -71.011346 3.363689 5.297685 -64.803803 0.000000 -0.000002 -0.000000 -0.000000 -0.000001 -0.000003 -0.000000 -0.000001 -0.000003 -0.000000 0.000000 -0.000003 -0.000000 0.000001 -0.000003 -0.000001 0.000002 -0.000003 -0.000000 0.000001 -0.000003 -0.000002 0.000000 -0.000002 -42.323534 -9.872676 -8.417962 -52.572936 45.615944 95.216314 -0.000379 103.508655 0.000370 -37.485956 -24.539142 -24.434623 9.173395 -5.375650 12.391173 21.530966 -18.085987 -18.415126 0.000004 -0.000000 -0.000000 -0.749931 2.347200 9.291788 0.748577 -2.534189 32.908586 -0.000000 0.000000 -0.000002 3.029495 -7.087985 46.744551 6.315204 -4.352601 110.877049 -0.000001 -0.000000 -0.000003 -3.383962 -2.395741 55.710715 5.491424 -4.581990 100.330356 0.000000 0.000001 -0.000002 -3.522149 -3.278918 62.724161 4.020429 -4.613500 82.133291 -0.000000 -0.000000 0.000001 0.000000 0.000001 -0.000000 0.000001 0.000000 -0.000001 0.000000 0.000000 -0.000000 -0.000000 -0.000001 0.000003 -0.000000 0.000000 0.000002 -0.000000 -0.000001 0.000003 -0.000000 0.000000 0.000002 -0.000002 0.000000 -0.000000 -0.000002 0.000000 -0.000000 -0.000002 0.000000 -0.000000 -0.000002 0.000000 -0.000000 -0.000002 0.000000 -0.000000 -0.000002 0.000000 -0.000000 -0.000002 0.000000 -0.000000 0.000002 -0.000002 0.000001 -0.000002 0.000003 0.000000 
